<!-- A sprite that contains all SVG files -->
<svg xmlns="http://www.w3.org/2000/svg" xmlns:xlink="http://www.w3.org/1999/xlink">
  <defs>
    <symbol id="triangle" xmlns="http://www.w3.org/2000/svg"><polygon strokeWidth="1px" strokeLinejoin="round" strokeMiterlimit="10" points="14.921,2.27 28.667,25.5 1.175,25.5" /></symbol>
    <symbol id="circle" xmlns="http://www.w3.org/2000/svg"><path d="M15,30A15,15,0,1,1,30,15,15,15,0,0,1,15,30ZM15,6.23A8.77,8.77,0,1,0,23.77,15,8.77,8.77,0,0,0,15,6.23Z" /></symbol>
    <symbol id="arrowUp" xmlns="http://www.w3.org/2000/svg"><path d="M28.74,20.81H1.26a1.26,1.26,0,0,1-1-2L14.16.5a1.25,1.25,0,0,1,1-.5h0a1.24,1.24,0,0,1,1,.51L29.75,18.8a1.25,1.25,0,0,1-1,2ZM3.81,18.29H26.22L15.16,3.37Z" /><path d="M28.74,42H1.26a1.28,1.28,0,0,1-1.13-.71A1.26,1.26,0,0,1,.26,40l13.9-18.29a1.28,1.28,0,0,1,1-.5h0a1.24,1.24,0,0,1,1,.51L29.75,40a1.26,1.26,0,0,1,.12,1.32A1.28,1.28,0,0,1,28.74,42ZM3.81,39.47H26.22L15.16,24.55Z" /></symbol>
    <symbol id="upDown" xmlns="http://www.w3.org/2000/svg"><path d="M28.74,44.58a1.28,1.28,0,0,1-1-.51L15.16,27.13l-12.89,17a1.26,1.26,0,1,1-2-1.53l13.9-18.29a1.34,1.34,0,0,1,1-.5,1.24,1.24,0,0,1,1,.51L29.75,42.56a1.27,1.27,0,0,1-1,2Z" /><path d="M14.83,20.82h0a1.28,1.28,0,0,1-1-.52L.25,2a1.27,1.27,0,0,1,2-1.51L14.84,17.45,27.73.5a1.26,1.26,0,0,1,2,1.53L15.84,20.32A1.28,1.28,0,0,1,14.83,20.82Z" /></symbol>
    <symbol id="box" xmlns="http://www.w3.org/2000/svg"><path d="M28,2V28H2V2H28m.13-2H1.88A1.88,1.88,0,0,0,0,1.88V28.13A1.88,1.88,0,0,0,1.88,30H28.13A1.87,1.87,0,0,0,30,28.13V1.88A1.88,1.88,0,0,0,28.13,0Z" /></symbol>
    <symbol id="hexa" xmlns="http://www.w3.org/2000/svg"><polygon strokeLinejoin="round" strokeMiterlimit="10" points="27.5,21.904 15,28.809  2.5,21.904 2.5,8.095 15,1.19 27.5,8.095" /></symbol>
    <symbol id="cross" xmlns="http://www.w3.org/2000/svg"><path strokeWidth="3px" d="M60.5,50l34.8-34.8c2.9-2.9,2.9-7.6,0-10.5c-2.9-2.9-7.6-2.9-10.5,0L50,39.5L15.2,4.7c-2.9-2.9-7.6-2.9-10.5,0    c-2.9,2.9-2.9,7.6,0,10.5L39.5,50L4.7,84.8c-2.9,2.9-2.9,7.6,0,10.5c1.4,1.4,3.3,2.2,5.2,2.2s3.8-0.7,5.2-2.2L50,60.5l34.8,34.8    c1.4,1.4,3.3,2.2,5.2,2.2c1.9,0,3.8-0.7,5.2-2.2c2.9-2.9,2.9-7.6,0-10.5L60.5,50z" /></symbol>

  <symbol id="wine_glass" xmlns="http://www.w3.org/2000/svg">
    <path d="M21,56.3 L32,61 C32,61.6 31.2,62 30.2,62 L5.7,62 C4.7,62 3.9,61.6 3.9,61 L14.9,56.3 L14.9,33.8 C6.4,32.6 -0.1,29.2 -0.1,19 C-0.1,14.5 1.2,3.9 3.4,0 L32.4,0 C34.6,3.9 35.9,14.5 35.9,19 C35.9,29.2 29.4,32.6 20.9,33.8 L20.9,56.3 L21,56.3 Z"/>
    <path d="M0.6,11.1 C0.6,11.1 3.7,8.3 12.4,12.2 C20,15.6 20.4,15.5 26.7,13.2 C33.5,10.7 35.6,14 35.6,14"/>
  </symbol>
  <symbol id="sun" xmlns="http://www.w3.org/2000/svg">
    <path d="M12 4V2M12 20V22M6.41421 6.41421L5 5M17.728 17.728L19.1422 19.1422M4 12H2M20 12H22M17.7285 6.41421L19.1427 5M6.4147 17.728L5.00049 19.1422M12 17C9.23858 17 7 14.7614 7 12C7 9.23858 9.23858 7 12 7C14.7614 7 17 9.23858 17 12C17 14.7614 14.7614 17 12 17Z" stroke="#fff005" stroke-width="2" stroke-linecap="round" stroke-linejoin="round"/>
   </symbol>
  <symbol id="wine_bottle" xmlns="http://www.w3.org/2000/svg">
    <path d="M22 0C21.476563 0 20.941406 0.183594 20.5625 0.5625C20.183594 0.941406 20 1.476563 20 2L20 5.6875C19.941406 5.882813 19.941406 6.085938 20 6.28125L20 13.34375C19.257813 13.652344 18.3125 14.144531 17.34375 15.125C16.082031 16.398438 15 18.421875 15 21.3125L15 47.09375C15 48.628906 16.277344 49.90625 17.8125 49.90625L32.1875 49.90625C33.722656 49.90625 35 48.628906 35 47.09375L35 21.3125C35 18.46875 33.914063 16.441406 32.65625 15.15625C31.695313 14.171875 30.75 13.695313 30 13.375L30 6.1875C30.027344 6.054688 30.027344 5.914063 30 5.78125L30 2C30 1.476563 29.816406 0.941406 29.4375 0.5625C29.058594 0.183594 28.523438 0 28 0 Z M 22 2L28 2L28 5L22 5 Z M 22 7L28 7L28 14C28.003906 14.425781 28.28125 14.804688 28.6875 14.9375C29.183594 15.101563 30.304688 15.597656 31.25 16.5625C32.195313 17.527344 33 18.957031 33 21.3125L33 47.09375C33 47.558594 32.652344 47.90625 32.1875 47.90625L17.8125 47.90625C17.347656 47.90625 17 47.558594 17 47.09375L17 21.3125C17 18.902344 17.8125 17.449219 18.75 16.5C19.6875 15.550781 20.792969 15.109375 21.3125 14.9375C21.71875 14.804688 21.996094 14.425781 22 14 Z M 19.8125 25C19.335938 25.089844 18.992188 25.511719 19 26L19 42C19 42.550781 19.449219 43 20 43L30 43C30.550781 43 31 42.550781 31 42L31 26C31 25.449219 30.550781 25 30 25L20 25C19.96875 25 19.9375 25 19.90625 25C19.875 25 19.84375 25 19.8125 25 Z M 21 27L29 27L29 30L21 30 Z M 21 32L29 32L29 41L21 41Z"/>
  </symbol>
  <symbol id="wine_glass_2" xmlns="http://www.w3.org/2000/svg">
    <path d="M257.5,300.122c66.609-7.479,118.559-64.138,118.559-132.71c0-5.556-0.348-11.161-1.033-16.661L356.246,0H128.753
      l-18.778,150.75c-0.685,5.497-1.033,11.104-1.033,16.661c0,68.572,51.95,125.231,118.558,132.71V455H124.859v30H360.14v-30H257.5
      V300.122z M329.752,30l13.404,107.604H141.844L155.248,30H329.752z M138.944,167.604h207.112
      c-0.105,57.013-46.518,103.364-103.556,103.364C185.462,270.969,139.049,224.617,138.944,167.604z"/>
  </symbol>
  <symbol id="cheers" xmlns="http://www.w3.org/2000/svg">
        <path d="M178.184,47.201c-7.207,0-11.781,8.036-12.862,8.036c-0.947,0-5.334-8.036-12.865-8.036
					c-7.325,0-13.307,6.042-13.698,13.357c-0.221,4.132,1.111,7.277,2.989,10.126c3.75,5.691,20.148,19.392,23.598,19.392
					c3.522,0,19.773-13.651,23.549-19.392c1.881-2.861,3.211-5.994,2.988-10.126C191.49,53.243,185.509,47.201,178.184,47.201"/>
				<path d="M136.198,7.898c-5.195,0-8.49,5.791-9.27,5.791c-0.683,0-3.844-5.791-9.271-5.791c-5.279,0-9.59,4.353-9.872,9.626
					c-0.159,2.978,0.801,5.245,2.153,7.297c2.703,4.102,14.521,13.976,17.007,13.976c2.539,0,14.251-9.838,16.972-13.976
					c1.355-2.063,2.313-4.319,2.153-7.297C145.788,12.251,141.478,7.898,136.198,7.898"/>
				<path d="M210.531,7.898c-5.194,0-8.491,5.791-9.271,5.791c-0.682,0-3.842-5.791-9.27-5.791c-5.28,0-9.591,4.353-9.873,9.626
					c-0.159,2.978,0.801,5.245,2.153,7.297c2.703,4.102,14.521,13.976,17.006,13.976c2.539,0,14.25-9.838,16.973-13.976
					c1.356-2.063,2.313-4.319,2.153-7.297C220.122,12.251,215.811,7.898,210.531,7.898"/>
				<path d="M153.968,114.037c-1.18-7.706-2.733-12.419-7.184-13.708L69.035,77.811c-0.642-0.186-1.295-0.28-1.941-0.28
					c-3.727,0-7.147,3.071-11.457,8.027c-3.354,3.86-7.536,9.308-12.093,15.754c-9.083,12.853-17.312,26.286-20.012,32.667
					c-6.069,14.335-4.653,31.263,3.986,47.665c6.396,12.146,19.343,24.885,33.303,32.867c-1.354,6.283-4.832,19.74-9.328,35.072
					c-7.825,26.69-11.874,35.842-12.879,37.318c-0.506,0.288-2.418,0.885-6.569,0.885c-3.213,0-6.981-0.371-10.898-1.07
					l-0.295-0.053c-0.816-0.146-1.771-0.367-2.78-0.602c-2.543-0.589-5.425-1.256-8.199-1.256c-6.405,0-8.825,3.715-9.729,6.83
					c-0.245,0.848-0.298,2.178,0.848,3.701c6.518,8.674,64.362,26.016,82,26.016c1.843,0,6.738,0,7.746-3.479
					c2.64-9.115-6.633-12.355-12.173-14.293c-0.979-0.342-1.903-0.664-2.675-0.979l-0.272-0.11
					c-10.058-4.099-14.341-8.102-14.866-9.178c-0.066-1.801,1.356-11.706,8.805-38.566c4.143-14.941,8.232-28.177,10.402-34.434
					c31.063,1.873,70.107-16.889,75.269-48.193c1.127-6.834,1.35-22.587,0.544-38.309
					C155.362,125.917,154.739,119.077,153.968,114.037z M144.353,144.211c-0.225,2.083-1.314,2.214-1.963,1.98
					c-5.762-2.082-11.756-3.098-18.216-3.098c-9.543,0-18.563,2.201-27.287,4.329c-7.902,1.928-15.367,3.749-22.509,3.75
					c-9.005,0-20.859-2.514-32.697-22.124l-0.406-0.669c-0.322-0.613,0.05-2.018,0.831-3.297
					c8.42-13.847,19.815-29.134,25.125-34.519c0.523-0.53,1.269-0.439,1.678-0.319c17.016,4.968,64.591,18.771,71.784,20.849
					c0.602,0.174,0.845,0.864,0.845,0.864C143.265,117.317,144.595,128.053,144.353,144.211z"/>
				<path d="M329.113,291.639c-0.903-3.116-3.323-6.831-9.729-6.831c-2.773,0-5.656,0.667-8.198,1.256
					c-1.011,0.232-1.965,0.455-2.78,0.602l-0.295,0.053c-3.917,0.699-7.686,1.07-10.898,1.07c-4.199,0-6.107-0.61-6.55-0.863
					c-1.027-1.504-5.076-10.657-12.898-37.34c-4.496-15.332-7.974-28.789-9.328-35.07c13.96-7.982,26.906-20.723,33.304-32.868
					c8.64-16.403,10.056-33.331,3.986-47.665c-2.699-6.382-10.93-19.815-20.013-32.668c-4.557-6.447-8.738-11.895-12.093-15.755
					c-4.311-4.956-7.729-8.027-11.457-8.027c-0.646,0-1.3,0.094-1.941,0.28l-77.749,22.518c-4.451,1.289-6.005,6.002-7.185,13.708
					c-0.771,5.04-1.396,11.88-1.802,19.779c-0.808,15.721-0.584,31.474,0.543,38.308c5.162,31.306,44.213,50.076,75.27,48.193
					c2.17,6.256,6.259,19.493,10.402,34.434c7.46,26.901,8.875,36.795,8.81,38.539c-0.567,1.141-4.856,5.125-14.868,9.205
					l-0.277,0.112c-0.769,0.313-1.693,0.638-2.673,0.979c-5.539,1.938-14.812,5.178-12.173,14.293
					c1.009,3.479,5.903,3.479,7.746,3.479c17.639,0,75.482-17.343,82-26.016C329.411,293.817,329.358,292.487,329.113,291.639z
					 M288.113,126.636c0.326,0.585,0.238,1.13,0.113,1.338c-0.081,0.132-0.651,1.074-0.651,1.074
					c-11.837,19.607-23.692,22.122-32.698,22.124c-7.142,0-14.607-1.821-22.512-3.75c-8.724-2.128-17.742-4.329-27.283-4.329
					c-6.875,0-13.221,1.152-19.325,3.512c-0.276,0.107-0.841,0.053-0.841-0.76c-0.23-15.553,1.186-28.2,2.83-33.989
					c0.064-0.227,0.049-0.521,0.798-0.816l71.891-20.822c1.069-0.341,1.297,0.054,1.488,0.243
					C267.21,95.68,279.638,112.699,288.113,126.636z"/>
          </symbol>
  </defs>
</svg>
